<svg xmlns="http://www.w3.org/2000/svg" xmlns:xlink="http://www.w3.org/1999/xlink" width="500" zoomAndPan="magnify" viewBox="0 0 375 374.999991" height="500" preserveAspectRatio="xMidYMid meet" version="1.2"><defs><clipPath id="48f4290e45"><path d="M 319.949219 259.0625 L 370.648438 259.0625 L 370.648438 316.078125 L 319.949219 316.078125 Z M 319.949219 259.0625 "/></clipPath></defs><g id="61211f9def"><g style="fill:#ecff51;fill-opacity:1;"><g transform="translate(4.350746, 312.91899)"><path style="stroke:none" d="M 121.109375 0 L 6.890625 0 L 6.890625 -229.75 C 26.585938 -229.75 45.84375 -229.75 64.65625 -229.75 C 83.476562 -229.75 102.734375 -229.75 122.421875 -229.75 L 122.421875 -208.75 L 106.34375 -181.828125 L 107.65625 -180.515625 L 147.046875 -229.75 L 248.796875 -229.75 L 248.796875 -208.75 L 231.71875 -182.8125 L 234.015625 -180.515625 L 272.09375 -229.75 L 359.40625 -229.75 L 359.40625 -138.84375 L 246.5 0 L 147.046875 0 L 147.046875 -31.84375 Z M 121.109375 0 "/></g></g><g clip-rule="nonzero" clip-path="url(#48f4290e45)"><path style=" stroke:none;fill-rule:nonzero;fill:#ecff51;fill-opacity:1;" d="M 319.949219 259.0625 L 370.648438 259.0625 L 370.648438 316.101562 L 319.949219 316.101562 Z M 319.949219 259.0625 "/></g></g></svg>